<svg width="32" height="32" viewBox="0 0 32 32" fill="none" xmlns="http://www.w3.org/2000/svg">
<path d="M16 17C11.589 17 8 13.411 8 9C8 4.589 11.589 1 16 1C20.411 1 24 4.589 24 9C24 13.411 20.411 17 16 17ZM16 3C12.691 3 10 5.691 10 9C10 12.309 12.691 15 16 15C19.309 15 22 12.309 22 9C22 5.691 19.309 3 16 3Z" fill="#434343"/>
<path d="M16.4 13.2H15.6C15.0395 13.1978 14.4946 13.0154 14.0456 12.6798C13.5967 12.3441 13.2677 11.873 13.107 11.336C13.0665 11.2091 13.0517 11.0754 13.0636 10.9427C13.0755 10.81 13.1137 10.681 13.1761 10.5633C13.2386 10.4456 13.3239 10.3416 13.4271 10.2573C13.5302 10.173 13.6492 10.1102 13.777 10.0726C13.9048 10.0349 14.0389 10.0232 14.1713 10.0381C14.3036 10.053 14.4317 10.0941 14.548 10.1592C14.6643 10.2243 14.7663 10.3119 14.8482 10.417C14.9302 10.5221 14.9903 10.6424 15.025 10.771C15.1 11.024 15.337 11.201 15.6 11.201H16.4C16.5593 11.201 16.712 11.1378 16.8246 11.0252C16.9372 10.9126 17.0005 10.7598 17.0005 10.6005C17.0005 10.4413 16.9372 10.2885 16.8246 10.1759C16.712 10.0633 16.5593 10 16.4 10H15.6C14.166 10 13 8.83305 13 7.40005C13 5.96705 14.166 4.80005 15.6 4.80005H16.4C17.521 4.80005 18.511 5.51405 18.866 6.57805C18.9096 6.70311 18.9279 6.83558 18.9199 6.96777C18.9118 7.09997 18.8776 7.22925 18.8192 7.34811C18.7608 7.46697 18.6794 7.57305 18.5796 7.66019C18.4799 7.74732 18.3638 7.81378 18.2382 7.8557C18.1126 7.89762 17.9799 7.91417 17.8478 7.90438C17.7157 7.8946 17.5869 7.85868 17.4688 7.7987C17.3508 7.73873 17.2458 7.6559 17.16 7.55502C17.0742 7.45414 17.0093 7.33722 16.969 7.21105C16.9296 7.09131 16.8533 6.9871 16.7511 6.91328C16.649 6.83947 16.5261 6.79984 16.4 6.80005H15.6C15.4409 6.80005 15.2883 6.86326 15.1757 6.97578C15.0632 7.08831 15 7.24092 15 7.40005C15 7.55918 15.0632 7.71179 15.1757 7.82431C15.2883 7.93683 15.4409 8.00005 15.6 8.00005H16.4C17.834 8.00005 19 9.16705 19 10.6C19 12.033 17.834 13.2 16.4 13.2Z" fill="#434343"/>
<path d="M16 5.99995C15.729 5.99995 15.479 5.88995 15.29 5.70995C15.25 5.65995 15.2 5.60995 15.17 5.54995C15.1304 5.49894 15.0999 5.44142 15.08 5.37995C15.0512 5.32314 15.0307 5.26254 15.019 5.19995C15.01 5.12995 15 5.06995 15 4.99995C15 4.73995 15.109 4.47995 15.29 4.28995C15.66 3.91995 16.33 3.91995 16.71 4.28995C16.89 4.47995 17 4.73995 17 4.99995C17 5.06995 16.99 5.12995 16.979 5.19995C16.9686 5.26273 16.9483 5.32347 16.919 5.37995C16.8987 5.44125 16.8683 5.49871 16.829 5.54995C16.789 5.60995 16.749 5.65995 16.709 5.70995C16.52 5.88995 16.26 5.99995 16 5.99995ZM16 14C15.729 14 15.479 13.89 15.29 13.71C15.25 13.66 15.2 13.61 15.17 13.55C15.1304 13.4989 15.0999 13.4414 15.08 13.38C15.0512 13.3231 15.0307 13.2625 15.019 13.2C15.01 13.13 15 13.07 15 13C15 12.74 15.109 12.48 15.29 12.29C15.66 11.92 16.33 11.92 16.71 12.29C16.89 12.48 17 12.74 17 13C17 13.07 16.99 13.13 16.979 13.2C16.9686 13.2627 16.9483 13.3235 16.919 13.38C16.8987 13.4412 16.8683 13.4987 16.829 13.55C16.789 13.61 16.749 13.66 16.709 13.71C16.52 13.89 16.26 14 16 14ZM18 31H2C1.73478 31 1.48043 30.8946 1.29289 30.7071C1.10536 30.5195 1 30.2652 1 30V21C1 20.735 1.105 20.4799 1.293 20.2929C1.527 20.0579 3.653 18 6 18C7.944 18 10.452 19.469 11.295 20H16C16.4377 20.0006 16.87 20.0969 17.2666 20.2821C17.6632 20.4673 18.0145 20.737 18.296 21.0722C18.5774 21.4074 18.7823 21.8 18.8961 22.2227C19.0099 22.6453 19.03 23.0877 18.955 23.5189L26.846 20.231C27.3018 20.0405 27.7976 19.9658 28.2893 20.0134C28.781 20.0611 29.2532 20.2296 29.664 20.504C30.0754 20.7774 30.4127 21.1485 30.6458 21.584C30.8789 22.0195 31.0006 22.506 31 23C31.0001 23.1748 30.9543 23.3465 30.8673 23.4981C30.7802 23.6497 30.655 23.7759 30.504 23.864L18.504 30.864C18.3509 30.953 18.1771 30.9999 18 31ZM3 29H17.729L28.869 22.502C28.7913 22.368 28.6839 22.2537 28.555 22.1679C28.4186 22.0753 28.2612 22.0185 28.0971 22.0026C27.933 21.9867 27.7676 22.0123 27.616 22.077L18.386 25.923C18.2637 25.9738 18.1325 25.9999 18 26H10C9.73478 26 9.48043 25.8946 9.29289 25.7071C9.10536 25.5195 9 25.2652 9 25C9 24.7347 9.10536 24.4804 9.29289 24.2928C9.48043 24.1053 9.73478 24 10 24H16C16.2575 23.9884 16.5006 23.878 16.6787 23.6918C16.8569 23.5055 16.9563 23.2577 16.9563 23C16.9563 22.7422 16.8569 22.4944 16.6787 22.3081C16.5006 22.1219 16.2575 22.0115 16 22H11C10.803 22 10.609 21.941 10.445 21.833C9.68 21.323 7.387 20 6 20C4.91 20 3.653 20.8799 3 21.4389V29Z" fill="#434343"/>
</svg>
