<svg width="23" height="23" viewBox="0 0 23 23" fill="none" xmlns="http://www.w3.org/2000/svg">
<path d="M21.2625 15.475C19.725 15.475 18.2375 15.225 16.85 14.775C16.4125 14.625 15.925 14.7375 15.5875 15.075L13.625 17.5375C10.0875 15.85 6.775 12.6625 5.0125 9L7.45 6.925C7.7875 6.575 7.8875 6.0875 7.75 5.65C7.2875 4.2625 7.05 2.775 7.05 1.2375C7.05 0.5625 6.4875 0 5.8125 0H1.4875C0.8125 0 0 0.3 0 1.2375C0 12.85 9.6625 22.5 21.2625 22.5C22.15 22.5 22.5 21.7125 22.5 21.025V16.7125C22.5 16.0375 21.9375 15.475 21.2625 15.475Z" fill="#434343"/>
</svg>
