<svg width="200" height="200" viewBox="0 0 200 200" fill="none" xmlns="http://www.w3.org/2000/svg">
<path d="M198.5 100C198.5 154.4 154.4 198.5 100 198.5C45.5999 198.5 1.5 154.4 1.5 100C1.5 45.5999 45.5999 1.5 100 1.5C154.4 1.5 198.5 45.5999 198.5 100Z" fill="#999787" stroke="black" stroke-width="3"/>
<path d="M131.287 86.4864C131.287 105.329 116.489 120.473 98.3933 120.473C80.298 120.473 65.5 105.329 65.5 86.4864C65.5 67.644 80.298 52.5 98.3933 52.5C116.489 52.5 131.287 67.644 131.287 86.4864Z" fill="#999787" stroke="black" stroke-width="5"/>
<mask id="path-3-inside-1_82_322" fill="white">
<path d="M170 161.487C170 156.429 168.189 151.421 164.672 146.748C161.154 142.076 155.998 137.83 149.497 134.254C142.997 130.677 135.281 127.841 126.788 125.905C118.295 123.97 109.193 122.973 100 122.973C90.8075 122.973 81.7049 123.97 73.2122 125.905C64.7194 127.841 57.0026 130.677 50.5025 134.254C44.0024 137.83 38.8463 142.076 35.3284 146.748C31.8106 151.421 30 156.429 30 161.487L100 161.487H170Z"/>
</mask>
<path d="M170 161.487C170 156.429 168.189 151.421 164.672 146.748C161.154 142.076 155.998 137.83 149.497 134.254C142.997 130.677 135.281 127.841 126.788 125.905C118.295 123.97 109.193 122.973 100 122.973C90.8075 122.973 81.7049 123.97 73.2122 125.905C64.7194 127.841 57.0026 130.677 50.5025 134.254C44.0024 137.83 38.8463 142.076 35.3284 146.748C31.8106 151.421 30 156.429 30 161.487L100 161.487H170Z" fill="#999787" stroke="black" stroke-width="10" mask="url(#path-3-inside-1_82_322)"/>
</svg>
