<svg width="60" height="60" viewBox="0 0 60 60" fill="none" xmlns="http://www.w3.org/2000/svg">
<g clip-path="url(#clip0_122_17)">
<path fill-rule="evenodd" clip-rule="evenodd" d="M41.675 32.825C45.1 35.15 47.5 38.3 47.5 42.5V50H57.5V42.5C57.5 37.05 48.575 33.825 41.675 32.825Z" fill="#FFD600"/>
<path d="M22.5 30C28.0228 30 32.5 25.5228 32.5 20C32.5 14.4772 28.0228 10 22.5 10C16.9772 10 12.5 14.4772 12.5 20C12.5 25.5228 16.9772 30 22.5 30Z" fill="#FFD600"/>
<path fill-rule="evenodd" clip-rule="evenodd" d="M37.5 30C43.025 30 47.5 25.525 47.5 20C47.5 14.475 43.025 10 37.5 10C36.325 10 35.225 10.25 34.175 10.6C36.25 13.175 37.5 16.45 37.5 20C37.5 23.55 36.25 26.825 34.175 29.4C35.225 29.75 36.325 30 37.5 30Z" fill="#FFD600"/>
<path fill-rule="evenodd" clip-rule="evenodd" d="M22.5 32.5C15.825 32.5 2.5 35.85 2.5 42.5V50H42.5V42.5C42.5 35.85 29.175 32.5 22.5 32.5Z" fill="#FFD600"/>
</g>
<defs>
<clipPath id="clip0_122_17">
<rect width="60" height="60" fill="white"/>
</clipPath>
</defs>
</svg>
