<svg width="32" height="32" viewBox="0 0 32 32" fill="none" xmlns="http://www.w3.org/2000/svg">
<path d="M16.0944 0L19.7078 12.0922L31.4011 12.0922L21.9411 19.5656L25.5545 31.6578L16.0944 24.1844L6.63436 31.6578L10.2478 19.5656L0.787717 12.0922L12.481 12.0922L16.0944 0Z" fill="#FFF16F"/>
<path d="M16.0944 0L19.7078 12.0922L31.4011 12.0922L21.9411 19.5656L25.5545 31.6578L16.0944 24.1844L6.63436 31.6578L10.2478 19.5656L0.787717 12.0922L12.481 12.0922L16.0944 0Z" fill="#FFF16F"/>
<path d="M16.0944 0L19.7078 12.0922L31.4011 12.0922L21.9411 19.5656L25.5545 31.6578L16.0944 24.1844L6.63436 31.6578L10.2478 19.5656L0.787717 12.0922L12.481 12.0922L16.0944 0Z" fill="#FFF16F"/>
<path d="M16.0944 0L19.7078 12.0922L31.4011 12.0922L21.9411 19.5656L25.5545 31.6578L16.0944 24.1844L6.63436 31.6578L10.2478 19.5656L0.787717 12.0922L12.481 12.0922L16.0944 0Z" fill="#FFF16F"/>
<path d="M16.0944 0L19.7078 12.0922L31.4011 12.0922L21.9411 19.5656L25.5545 31.6578L16.0944 24.1844L6.63436 31.6578L10.2478 19.5656L0.787717 12.0922L12.481 12.0922L16.0944 0Z" fill="#FFF16F"/>
</svg>
